name C:\Users\antoi\Documents\MyRepositories\upper-imu-dc\Results\main_tracking\Case_69\FLX01_linearAccelerations_groundFrame.mot
datacolumns 4
datarows 105
range 0.51000000 1.55000000
endheader 
time	radius_imu_x	radius_imu_y	radius_imu_z	
          0.51000000	          0.26350357	          9.81757568	         -0.25048092	
          0.52000000	          0.36328379	          9.79094681	         -0.41554694	
          0.53000000	          0.44248516	          9.79323824	         -0.44179007	
          0.54000000	          0.51707141	          9.81623936	         -0.41754781	
          0.55000000	          0.59344906	          9.84744217	         -0.37000928	
          0.56000000	          0.67221734	          9.88443662	         -0.30966519	
          0.57000000	          0.75213327	          9.92554869	         -0.24002965	
          0.58000000	          0.83154542	          9.97021865	         -0.16240195	
          0.59000000	          0.90900589	         10.01815362	         -0.07738572	
          0.60000000	          0.98348909	         10.06933965	          0.01426562	
          0.61000000	          1.05445463	         10.12368077	          0.11125509	
          0.62000000	          1.12190555	         10.18100568	          0.21150845	
          0.63000000	          1.18658768	         10.24136746	          0.31204266	
          0.64000000	          1.24992136	         10.30432626	          0.40938132	
          0.65000000	          1.31347363	         10.36932032	          0.49990991	
          0.66000000	          1.37822631	         10.43597366	          0.57987983	
          0.67000000	          1.44499693	         10.50348895	          0.64589162	
          0.68000000	          1.51429509	         10.57092035	          0.69472367	
          0.69000000	          1.58645923	         10.63735517	          0.72327835	
          0.70000000	          1.66029956	         10.70170031	          0.72849736	
          0.71000000	          1.73607055	         10.76292194	          0.70816251	
          0.72000000	          1.81289688	         10.81997630	          0.66014626	
          0.73000000	          1.88946157	         10.87197369	          0.58350000	
          0.74000000	          1.96393936	         10.91817436	          0.47831425	
          0.75000000	          2.03373480	         10.95799478	          0.34607313	
          0.76000000	          2.09451940	         10.99088274	          0.19021929	
          0.77000000	          2.13923678	         11.01702410	          0.01636412	
          0.78000000	          2.15673069	         11.03439788	         -0.16604136	
          0.79000000	          2.12635913	         11.04640901	         -0.34283894	
          0.80000000	          2.17253474	         11.06319610	         -0.54292869	
          0.81000000	          2.26658099	         11.06517959	         -0.73759968	
          0.82000000	          2.04495191	         11.07726541	         -0.87706149	
          0.83000000	          1.83333470	         11.08963203	         -0.88845117	
          0.84000000	          1.65980598	         11.12400279	         -0.91013883	
          0.85000000	          1.51189201	         11.18204446	         -0.84764692	
          0.86000000	          1.37085011	         11.24698793	         -0.78629442	
          0.87000000	          1.22535119	         11.31228199	         -0.71237389	
          0.88000000	          1.08213183	         11.37634370	         -0.64267174	
          0.89000000	          0.94512901	         11.43728088	         -0.57689115	
          0.90000000	          0.80877497	         11.49402999	         -0.51805189	
          0.91000000	          0.67831710	         11.54420040	         -0.47274583	
          0.92000000	          0.55452117	         11.58650239	         -0.44111097	
          0.93000000	          0.43850112	         11.61952686	         -0.42660611	
          0.94000000	          0.33171173	         11.64289966	         -0.42951654	
          0.95000000	          0.23413497	         11.65669086	         -0.44914901	
          0.96000000	          0.14609985	         11.66133804	         -0.48411763	
          0.97000000	          0.06586910	         11.65702407	         -0.53251576	
          0.98000000	         -0.00774882	         11.64451988	         -0.59158844	
          0.99000000	         -0.07709051	         11.62444674	         -0.65795842	
          1.00000000	         -0.14435533	         11.59749694	         -0.72812532	
          1.01000000	         -0.21186521	         11.56418218	         -0.79840538	
          1.02000000	         -0.28172465	         11.52489483	         -0.86520449	
          1.03000000	         -0.35561103	         11.47984178	         -0.92515861	
          1.04000000	         -0.43464140	         11.42918273	         -0.97528565	
          1.05000000	         -0.51934434	         11.37311096	         -1.01307567	
          1.06000000	         -0.60972771	         11.31189682	         -1.03658263	
          1.07000000	         -0.70535787	         11.24587777	         -1.04454282	
          1.08000000	         -0.80541489	         11.17542243	         -1.03651492	
          1.09000000	         -0.90882334	         11.10086592	         -1.01284708	
          1.10000000	         -1.01429883	         11.02250392	         -0.97462108	
          1.11000000	         -1.12042508	         10.94057707	         -0.92334763	
          1.12000000	         -1.22568977	         10.85530900	         -0.86073498	
          1.13000000	         -1.32848887	         10.76694934	         -0.78850641	
          1.14000000	         -1.42710052	         10.67584108	         -0.70837122	
          1.15000000	         -1.51965261	         10.58250952	         -0.62212335	
          1.16000000	         -1.60444604	         10.48752431	         -0.53145652	
          1.17000000	         -1.67951042	         10.39178930	         -0.43855506	
          1.18000000	         -1.74213032	         10.29684227	         -0.34726511	
          1.19000000	         -1.79440804	         10.20184289	         -0.25607928	
          1.20000000	         -1.83267561	         10.10934575	         -0.17094413	
          1.21000000	         -1.85781168	         10.01975712	         -0.09309905	
          1.22000000	         -1.87124561	          9.93320643	         -0.02314247	
          1.23000000	         -1.87404943	          9.85007951	          0.03795446	
          1.24000000	         -1.86795734	          9.77034491	          0.09049675	
          1.25000000	         -1.85477152	          9.69370559	          0.13541399	
          1.26000000	         -1.83617975	          9.61967882	          0.17404186	
          1.27000000	         -1.81358547	          9.54771879	          0.20778991	
          1.28000000	         -1.78798026	          9.47739008	          0.23776492	
          1.29000000	         -1.76000759	          9.40841821	          0.26465185	
          1.30000000	         -1.73002859	          9.34075333	          0.28868593	
          1.31000000	         -1.69825479	          9.27454313	          0.30985342	
          1.32000000	         -1.66482564	          9.21010580	          0.32808053	
          1.33000000	         -1.62982919	          9.14798085	          0.34340151	
          1.34000000	         -1.59331748	          9.08896432	          0.35591531	
          1.35000000	         -1.55527338	          9.03413467	          0.36587784	
          1.36000000	         -1.51572715	          8.98469800	          0.37364262	
          1.37000000	         -1.47459194	          8.94206223	          0.37932239	
          1.38000000	         -1.43174994	          8.90761369	          0.38282320	
          1.39000000	         -1.38714061	          8.88235979	          0.38389051	
          1.40000000	         -1.34063767	          8.86711048	          0.38189137	
          1.41000000	         -1.29217408	          8.86212613	          0.37582318	
          1.42000000	         -1.24180406	          8.86720248	          0.36475666	
          1.43000000	         -1.18976792	          8.88160786	          0.34812291	
          1.44000000	         -1.13649904	          8.90418979	          0.32595377	
          1.45000000	         -1.08257484	          8.93357748	          0.29892606	
          1.46000000	         -1.02862968	          8.96842243	          0.26820504	
          1.47000000	         -0.97528359	          9.00761842	          0.23523168	
          1.48000000	         -0.92309314	          9.05041460	          0.20146144	
          1.49000000	         -0.87256099	          9.09641513	          0.16818007	
          1.50000000	         -0.82417441	          9.14547684	          0.13636209	
          1.51000000	         -0.77841426	          9.19754541	          0.10657942	
          1.52000000	         -0.73573456	          9.25247442	          0.07894273	
          1.53000000	         -0.69653124	          9.30987402	          0.05309343	
          1.54000000	         -0.66112044	          9.36903128	          0.02826738	
          1.55000000	         -0.62976181	          9.42891795	          0.00350863	
